<?xml version="1.0" encoding="utf-8"?>
<!-- Generator: Adobe Illustrator 22.0.1, SVG Export Plug-In . SVG Version: 6.00 Build 0)  -->
<svg version="1.1" id="Layer_1" xmlns="http://www.w3.org/2000/svg" xmlns:xlink="http://www.w3.org/1999/xlink" x="0px" y="0px"
	 viewBox="0 0 256 256" style="enable-background:new 0 0 256 256;" xml:space="preserve">
<style type="text/css">
	.st0{fill:#3A312A;}
	.st1{fill:#D6DF58;}
	.st2{fill:#87796F;}
	.st3{fill:#B9C239;}
	.st4{fill:#EF6D7A;}
	.st5{fill:#FCE8CB;}
	.st6{fill:#D5DE58;}
	.st7{fill:#D34E5C;}
	.st8{fill:#695B51;}
	.st9{fill:#8AC6DD;}
	.st10{fill:#D7E057;}
	.st11{fill:#B8C136;}
	.st12{fill:#F16C7A;}
	.st13{fill:#8AC2D9;}
	.st14{fill:#F7E3C7;}
	.st15{fill:#8AC3DA;}
	.st16{fill:#6DA3BC;}
	.st17{fill:#6A5C52;}
	.st18{fill:#D5DC57;}
	.st19{fill:#F6E2C6;}
	.st20{fill:#DBC7AA;}
	.st21{fill:#CE4E61;}
	.st22{fill:#FAE6CA;}
	.st23{fill:#8AC5DC;}
	.st24{fill:#DDC9AC;}
	.st25{fill:#DECAAD;}
	.st26{fill:#6CA6BE;}
	.st27{fill:#F8E4C8;}
	.st28{fill:#89C4DB;}
	.st29{fill:#ED6E7A;}
	.st30{fill:#D24E5C;}
	.st31{fill:#6DA4BD;}
	.st32{fill:#EB6E7A;}
	.st33{fill:#68A7BB;}
	.st34{fill:#B9BC37;}
	.st35{fill:#CC4E61;}
	.st36{fill:#6CA8BF;}
	.st37{fill-rule:evenodd;clip-rule:evenodd;fill:#D5DE58;}
	.st38{fill:#EA6D7A;}
	.st39{fill:#F4E0C4;}
	.st40{fill-rule:evenodd;clip-rule:evenodd;fill:#D6DF58;}
	.st41{fill-rule:evenodd;clip-rule:evenodd;fill:#F16C7A;}
	.st42{fill:#F3DEC3;}
	.st43{fill-rule:evenodd;clip-rule:evenodd;fill:#FAE6CA;}
	.st44{fill:#F59689;}
	.st45{fill-rule:evenodd;clip-rule:evenodd;fill:#F8E4C8;}
	.st46{fill-rule:evenodd;clip-rule:evenodd;fill:#FCE8CB;}
	.st47{fill:#F5978A;}
	.st48{fill:#D4DB56;}
	.st49{fill-rule:evenodd;clip-rule:evenodd;fill:#D4DA55;}
	.st50{fill-rule:evenodd;clip-rule:evenodd;fill:#EB6E7A;}
	.st51{fill:#68A6B9;}
	.st52{fill-rule:evenodd;clip-rule:evenodd;fill:#D5DC57;}
	.st53{fill:#8AC1D8;}
	.st54{fill:#F5E1C5;}
	.st55{fill:#D4D752;}
	.st56{fill:#D3D751;}
	.st57{fill:#D4D853;}
	.st58{fill:#E96C7A;}
	.st59{fill:#D4DA55;}
	.st60{fill:#8BC0D7;}
	.st61{fill:#87796F;stroke:#3A312A;stroke-width:3;stroke-linecap:round;stroke-linejoin:round;stroke-miterlimit:10;}
</style>
<g>
	<g>
		<g>
			<path class="st18" d="M48.175,26.33c-0.974,11.564-13.025,13.389-13.025,13.389c10.347,0.487,12.925,14.059,12.925,14.059
				c0.221-9.677,13.321-14.202,13.321-14.202C51.583,38.989,48.175,26.33,48.175,26.33z"/>
		</g>
	</g>
	<g>
		<g>
			<path class="st0" d="M61.487,38.079c-8.604-0.515-11.833-12.024-11.864-12.141c-0.191-0.702-0.854-1.166-1.584-1.102
				c-0.725,0.066-1.298,0.642-1.359,1.367C45.82,36.419,35.367,38.167,34.926,38.235c-0.763,0.116-1.313,0.791-1.273,1.561
				c0.04,0.771,0.657,1.385,1.428,1.421c9.028,0.426,11.499,12.719,11.522,12.844c0.138,0.711,0.76,1.217,1.473,1.217
				c0.042,0,0.084-0.002,0.126-0.005c0.765-0.064,1.357-0.693,1.375-1.46c0.193-8.509,12.191-12.777,12.313-12.819
				c0.676-0.234,1.092-0.914,0.994-1.622C62.784,38.662,62.201,38.121,61.487,38.079z M47.921,48.425
				c-1.356-3.131-3.709-6.908-7.587-8.877c2.931-1.404,6.408-3.913,8.201-8.272c1.552,3.071,4.2,6.88,8.335,8.723
				C53.862,41.638,49.947,44.403,47.921,48.425z"/>
		</g>
	</g>
	<g>
		<g>
			<path class="st18" d="M26.477,43.31c-0.689,8.179-9.212,9.47-9.212,9.47c7.318,0.344,9.142,9.944,9.142,9.944
				c0.156-6.844,9.422-10.045,9.422-10.045C28.887,52.264,26.477,43.31,26.477,43.31z"/>
		</g>
	</g>
	<g>
		<g>
			<path class="st0" d="M35.918,51.183c-5.766-0.345-7.972-8.186-7.994-8.265c-0.188-0.702-0.863-1.168-1.581-1.102
				c-0.726,0.065-1.3,0.643-1.361,1.368c-0.578,6.87-7.646,8.065-7.941,8.112c-0.763,0.116-1.313,0.791-1.273,1.561
				c0.04,0.771,0.657,1.385,1.428,1.421c6.034,0.284,7.723,8.645,7.738,8.727c0.136,0.713,0.759,1.22,1.473,1.22
				c0.041,0,0.083-0.002,0.125-0.005c0.765-0.063,1.358-0.693,1.376-1.461c0.13-5.708,8.331-8.633,8.412-8.661
				c0.676-0.234,1.093-0.913,0.996-1.622C37.217,51.767,36.632,51.225,35.918,51.183z M26.333,57.978
				c-0.924-1.887-2.339-3.947-4.446-5.28c1.855-1.041,3.697-2.63,4.87-4.916c1.058,1.874,2.654,3.954,4.941,5.224
				C29.849,54.105,27.71,55.745,26.333,57.978z"/>
		</g>
	</g>
	<g>
		<g>
			<path class="st18" d="M26.439,16.653c-0.657,8.182-9.175,9.507-9.175,9.507c7.319,0.316,9.181,9.908,9.181,9.908
				c0.129-6.845,9.383-10.082,9.383-10.082C28.884,25.597,26.439,16.653,26.439,16.653z"/>
		</g>
	</g>
	<g>
		<g>
			<path class="st0" d="M35.911,24.487c-5.741-0.32-7.984-8.084-8.026-8.231c-0.192-0.702-0.872-1.173-1.586-1.097
				c-0.726,0.067-1.297,0.646-1.355,1.373c-0.552,6.873-7.614,8.097-7.91,8.145c-0.762,0.119-1.31,0.796-1.268,1.565
				c0.043,0.771,0.663,1.382,1.434,1.416c6.036,0.261,7.757,8.614,7.772,8.696c0.138,0.71,0.76,1.214,1.472,1.214
				c0.043,0,0.087-0.002,0.131-0.006c0.764-0.066,1.355-0.698,1.37-1.466c0.107-5.71,8.298-8.667,8.378-8.695
				c0.676-0.236,1.09-0.917,0.99-1.626C37.212,25.066,36.625,24.527,35.911,24.487z M26.353,31.32
				c-0.932-1.882-2.354-3.938-4.468-5.263c1.852-1.048,3.688-2.645,4.852-4.936c1.064,1.87,2.67,3.944,4.962,5.204
				C29.853,27.435,27.72,29.083,26.353,31.32z"/>
		</g>
	</g>
	<g>
		<g>
			<path class="st2" d="M115.424,16.242h-1.354c-9.414,0-17.043,7.63-17.043,17.043v13.734c4.922-1.483,10.155-2.278,15.56-2.278
				h4.32c5.405,0,10.639,0.795,15.56,2.278V33.285C132.467,23.872,124.837,16.242,115.424,16.242z"/>
		</g>
	</g>
	<g>
		<g>
			<path class="st0" d="M115.424,14.742h-1.354c-10.225,0-18.543,8.318-18.543,18.543v13.733c0,0.475,0.225,0.921,0.605,1.204
				c0.382,0.283,0.875,0.371,1.327,0.232c4.879-1.47,9.969-2.215,15.127-2.215h4.32c5.159,0,10.249,0.745,15.128,2.215
				c0.142,0.043,0.288,0.063,0.433,0.063c0.318,0,0.633-0.102,0.895-0.296c0.381-0.283,0.605-0.729,0.605-1.204V33.285
				C133.967,23.061,125.648,14.742,115.424,14.742z M130.967,45.039c-4.565-1.194-9.285-1.799-14.061-1.799h-4.32
				c-4.774,0-9.495,0.604-14.06,1.799V33.285c0-8.57,6.973-15.543,15.543-15.543h1.354c8.57,0,15.543,6.973,15.543,15.543V45.039z"
				/>
		</g>
	</g>
	<g>
		<g>
			<path class="st6" d="M81.347,209.035c1.655,17.248,16.194,30.723,33.872,30.723c17.678,0,32.217-13.476,33.872-30.723H81.347z"/>
		</g>
	</g>
	<g>
		<g>
			<path class="st0" d="M150.201,208.026c-0.284-0.313-0.688-0.491-1.11-0.491H81.348c-0.423,0-0.826,0.179-1.11,0.491
				s-0.423,0.731-0.383,1.152c1.754,18.288,16.958,32.079,35.365,32.079s33.61-13.791,35.364-32.079
				C150.624,208.758,150.485,208.339,150.201,208.026z M115.22,238.258c-16.297,0-29.851-11.806-32.18-27.723h64.358
				C145.069,226.452,131.516,238.258,115.22,238.258z"/>
		</g>
	</g>
	<g>
		<g>
			<path class="st28" d="M116.909,44.741h-4.325c-29.857,0-54.06,24.204-54.06,54.06v71.905h112.446V98.801
				C170.969,68.944,146.766,44.741,116.909,44.741z"/>
		</g>
	</g>
	<g>
		<g>
			<path class="st0" d="M116.909,43.24h-4.325c-30.636,0-55.561,24.925-55.561,55.561v28.37c0,0.828,0.672,1.5,1.5,1.5
				s1.5-0.672,1.5-1.5v-28.37c0-28.982,23.578-52.561,52.561-52.561h4.325c28.982,0,52.561,23.578,52.561,52.561v70.405H60.023
				v-26.939c0-0.828-0.672-1.5-1.5-1.5s-1.5,0.672-1.5,1.5v28.439c0,0.828,0.672,1.5,1.5,1.5H170.97c0.828,0,1.5-0.672,1.5-1.5
				V98.801C172.47,68.165,147.545,43.24,116.909,43.24z"/>
		</g>
	</g>
	<g>
		<g>
			<path class="st28" d="M165.644,170.706H63.849c-15.85,0-28.699,12.849-28.699,28.698v9.635h27.432H77.18h117.163v-9.635
				C194.342,183.554,181.494,170.706,165.644,170.706z"/>
		</g>
	</g>
	<g>
		<g>
			<path class="st0" d="M165.644,169.206H63.85c-16.652,0-30.199,13.547-30.199,30.198v9.635c0,0.828,0.672,1.5,1.5,1.5h159.192
				c0.828,0,1.5-0.672,1.5-1.5v-9.635C195.843,182.753,182.296,169.206,165.644,169.206z M192.843,207.539H36.65v-8.135
				c0-14.997,12.201-27.198,27.199-27.198h101.794c14.998,0,27.199,12.201,27.199,27.198V207.539z"/>
		</g>
	</g>
	<g>
		<g>
			<path class="st29" d="M191.483,71.242c-15.299,0-28.881,6.406-37.516,16.32l-7.385,12.271c-1.523,4.078-2.353,8.432-2.353,12.958
				c0,10.48,4.422,20.045,11.702,27.354l-7.466,18.815c-0.716,1.804,0.998,3.624,2.842,3.017l27.689-9.114
				c3.979,0.957,8.163,1.477,12.487,1.477c26.097,0,47.254-18.602,47.254-41.549S217.58,71.242,191.483,71.242z"/>
		</g>
	</g>
	<g>
		<g>
			<path class="st0" d="M191.482,69.741c-15.241,0-29.327,6.136-38.646,16.835c-0.544,0.625-0.479,1.572,0.146,2.116
				c0.626,0.546,1.573,0.479,2.116-0.146c8.75-10.045,22.012-15.806,36.385-15.806c25.229,0,45.754,17.966,45.754,40.05
				c0,22.083-20.525,40.049-45.754,40.049c-4.092,0-8.175-0.483-12.136-1.436c-0.271-0.066-0.556-0.054-0.819,0.033l-27.689,9.115
				c-0.429,0.14-0.717-0.099-0.82-0.208c-0.103-0.11-0.325-0.411-0.158-0.831l7.466-18.814c0.22-0.556,0.09-1.188-0.332-1.612
				c-7.264-7.294-11.265-16.632-11.265-26.296c0-4.235,0.76-8.419,2.259-12.434c0.29-0.776-0.104-1.64-0.881-1.93
				c-0.773-0.289-1.64,0.104-1.93,0.881c-1.625,4.352-2.448,8.888-2.448,13.482c0,10.151,4.059,19.952,11.449,27.705l-7.107,17.91
				c-0.548,1.382-0.256,2.912,0.764,3.995c0.733,0.778,1.72,1.195,2.742,1.195c0.398,0,0.803-0.063,1.199-0.194l27.288-8.982
				c4.059,0.942,8.235,1.42,12.419,1.42c26.883,0,48.754-19.312,48.754-43.049S218.365,69.741,191.482,69.741z"/>
		</g>
	</g>
	<g>
		<g>
			<path class="st27" d="M166.155,106.99c-3.32,0-6.01,2.691-6.01,6.01c0,3.319,2.691,6.01,6.01,6.01c3.319,0,6.01-2.691,6.01-6.01
				C172.165,109.68,169.474,106.99,166.155,106.99z"/>
		</g>
	</g>
	<g>
		<g>
			<path class="st0" d="M166.154,105.489c-4.141,0-7.51,3.369-7.51,7.511s3.369,7.511,7.51,7.511c4.142,0,7.511-3.369,7.511-7.511
				S170.296,105.489,166.154,105.489z M166.154,117.511c-2.486,0-4.51-2.023-4.51-4.511s2.023-4.511,4.51-4.511
				c2.487,0,4.511,2.023,4.511,4.511S168.642,117.511,166.154,117.511z"/>
		</g>
	</g>
	<g>
		<g>
			<path class="st27" d="M191.729,106.99c-3.319,0-6.01,2.691-6.01,6.01c0,3.319,2.691,6.01,6.01,6.01s6.01-2.691,6.01-6.01
				C197.739,109.68,195.048,106.99,191.729,106.99z"/>
		</g>
	</g>
	<g>
		<g>
			<path class="st0" d="M191.729,105.489c-4.141,0-7.51,3.369-7.51,7.511s3.369,7.511,7.51,7.511c4.142,0,7.511-3.369,7.511-7.511
				S195.87,105.489,191.729,105.489z M191.729,117.511c-2.486,0-4.51-2.023-4.51-4.511s2.023-4.511,4.51-4.511
				c2.487,0,4.511,2.023,4.511,4.511S194.216,117.511,191.729,117.511z"/>
		</g>
	</g>
	<g>
		<g>
			<path class="st27" d="M217.303,106.99c-3.319,0-6.01,2.691-6.01,6.01c0,3.319,2.691,6.01,6.01,6.01s6.01-2.691,6.01-6.01
				C223.313,109.68,220.623,106.99,217.303,106.99z"/>
		</g>
	</g>
	<g>
		<g>
			<path class="st0" d="M217.303,105.489c-4.141,0-7.51,3.369-7.51,7.511s3.369,7.511,7.51,7.511c4.142,0,7.511-3.369,7.511-7.511
				S221.444,105.489,217.303,105.489z M217.303,117.511c-2.486,0-4.51-2.023-4.51-4.511s2.023-4.511,4.51-4.511
				c2.487,0,4.511,2.023,4.511,4.511S219.79,117.511,217.303,117.511z"/>
		</g>
	</g>
	<g>
		<g>
			<path class="st7" d="M191.48,72.74c-3.42,0-6.78,0.33-10.02,0.96c17.8,3.48,31.72,16.06,35.02,31.84
				c0.27-0.04,0.54-0.05,0.82-0.05c4.14,0,7.51,3.37,7.51,7.51s-3.37,7.51-7.51,7.51c-0.3,0-0.6-0.02-0.9-0.06
				c-3.46,15.58-17.28,27.96-34.9,31.42c3.28,0.65,6.63,0.97,9.98,0.97c25.23,0,45.76-17.97,45.76-40.05S216.71,72.74,191.48,72.74z
				"/>
		</g>
	</g>
</g>
</svg>
